<?xml version="1.0" standalone="no"?>
<!DOCTYPE svg PUBLIC "-//W3C//DTD SVG 20010904//EN"
 "http://www.w3.org/TR/2001/REC-SVG-20010904/DTD/svg10.dtd">
<svg version="1.0" xmlns="http://www.w3.org/2000/svg"
 width="500.000000pt" height="500.000000pt" viewBox="0 0 500.000000 500.000000"
 preserveAspectRatio="xMidYMid meet">
<metadata>
Created by potrace 1.14, written by Peter Selinger 2001-2017
</metadata>
<g transform="translate(0.000000,500.000000) scale(0.100000,-0.100000)"
fill="#000000" stroke="none">
<path d="M2316 4760 c-567 -51 -1115 -336 -1477 -768 -489 -584 -664 -1371
-465 -2093 47 -169 85 -271 160 -424 330 -672 964 -1127 1706 -1226 121 -16
397 -16 520 0 491 64 930 281 1280 631 567 568 794 1402 595 2191 -104 410
-343 820 -642 1099 -332 309 -745 509 -1184 574 -133 20 -366 27 -493 16z
m1635 -760 c18 -10 19 -25 19 -345 0 -193 -4 -336 -9 -340 -5 -3 -33 -10 -62
-15 -30 -6 -70 -19 -90 -29 -20 -11 -40 -18 -43 -15 -3 2 -4 1 -1 -3 3 -3 -1
-13 -8 -22 -29 -34 -57 -98 -67 -155 -6 -38 -10 -405 -10 -1028 l0 -967 -27
-15 c-72 -36 -1116 -466 -1134 -466 -11 0 -61 18 -112 39 -51 21 -155 65 -232
96 -77 32 -158 65 -180 75 -90 40 -191 83 -395 166 -118 48 -220 92 -227 97
-9 7 -13 240 -15 1010 -3 1097 0 1028 -60 1126 -13 20 -21 41 -20 46 2 6 1 7
-3 3 -4 -3 -30 5 -58 18 -29 13 -67 24 -85 24 -18 0 -42 5 -53 10 -18 10 -19
25 -19 345 0 308 1 335 18 344 24 14 2846 15 2873 1z"/>
<path d="M1100 3656 l0 -314 38 -5 c127 -16 185 -65 236 -197 21 -54 21 -66
24 -1046 l3 -992 62 -27 c34 -15 81 -35 104 -46 24 -10 45 -19 49 -19 3 0 30
-11 60 -25 30 -14 58 -25 62 -25 4 -1 25 -9 47 -20 22 -11 43 -19 47 -20 4 0
37 -13 73 -30 36 -16 68 -30 71 -30 3 0 30 -11 60 -25 30 -14 57 -25 60 -25 3
0 30 -11 60 -25 30 -14 57 -25 60 -25 3 0 26 -10 52 -22 26 -12 52 -23 58 -24
6 -1 27 -9 45 -17 47 -22 113 -50 119 -51 3 -1 10 -4 15 -7 6 -4 48 9 95 28
105 43 331 138 385 162 22 10 51 22 65 26 14 4 91 36 172 71 81 35 150 64 152
64 3 0 35 13 71 30 36 17 68 30 71 30 3 0 24 8 47 19 23 10 50 21 60 24 16 6
17 61 17 966 0 1011 1 1047 45 1132 46 87 131 147 213 148 l32 1 0 315 0 315
-1415 0 -1415 0 0 -314z m2758 -8 l2 -228 -1340 0 -1340 0 0 230 0 230 1338
-2 1337 -3 3 -227z m-308 -1198 l0 -880 -1030 0 -1030 0 0 880 0 880 1030 0
1030 0 0 -880z m0 -1140 l0 -170 -1030 0 -1030 0 0 170 0 170 1030 0 1030 0 0
-170z"/>
<path d="M1353 3825 c-17 -7 -36 -22 -42 -34 -6 -11 -11 -73 -11 -141 0 -121
0 -122 29 -151 38 -37 91 -41 91 -6 0 12 -9 30 -20 40 -18 15 -20 29 -20 117
0 88 2 102 20 117 11 10 20 30 20 45 0 32 -16 35 -67 13z"/>
<path d="M1430 3810 c0 -19 7 -33 20 -40 13 -7 20 -21 20 -40 0 -29 2 -30 46
-30 l47 0 -7 42 c-8 50 -20 67 -63 85 -50 20 -63 17 -63 -17z"/>
<path d="M1670 3833 c-68 -22 -80 -48 -80 -180 0 -134 25 -183 94 -183 21 0
26 5 26 24 0 13 -7 29 -15 36 -12 10 -15 37 -15 120 0 83 3 110 15 120 18 15
20 70 3 69 -7 0 -20 -3 -28 -6z"/>
<path d="M1730 3812 c0 -16 7 -35 15 -42 12 -10 15 -37 15 -120 0 -83 -3 -110
-15 -120 -8 -7 -15 -23 -15 -36 0 -20 5 -24 29 -24 17 0 42 10 58 24 27 24 28
27 31 141 5 155 -7 182 -86 200 -30 6 -32 5 -32 -23z"/>
<path d="M2623 3825 c-17 -7 -36 -22 -42 -34 -6 -11 -11 -73 -11 -141 0 -121
0 -122 29 -151 39 -39 91 -41 91 -4 0 13 -8 28 -17 34 -15 8 -19 27 -21 115
-4 96 -2 106 17 123 27 22 29 73 4 73 -10 -1 -32 -7 -50 -15z"/>
<path d="M2700 3810 c0 -19 7 -33 20 -40 13 -7 20 -21 20 -40 0 -29 2 -30 46
-30 l47 0 -7 42 c-8 50 -20 67 -63 85 -50 20 -63 17 -63 -17z"/>
<path d="M1890 3650 l0 -180 40 0 40 0 0 180 0 180 -40 0 -40 0 0 -180z"/>
<path d="M2110 3650 l0 -180 45 0 45 0 0 180 0 180 -45 0 -45 0 0 -180z"/>
<path d="M2330 3650 l0 -180 45 0 45 0 0 180 0 180 -45 0 -45 0 0 -180z"/>
<path d="M2430 3800 c0 -30 1 -30 55 -30 54 0 55 0 55 30 0 30 -1 30 -55 30
-54 0 -55 0 -55 -30z"/>
<path d="M2850 3800 l0 -30 130 0 130 0 0 30 0 30 -130 0 -130 0 0 -30z"/>
<path d="M3130 3650 l0 -180 45 0 45 0 0 180 0 180 -45 0 -45 0 0 -180z"/>
<path d="M3245 3818 c5 -14 67 -238 85 -305 10 -40 13 -43 46 -43 29 0 34 3
30 18 -2 9 -22 90 -42 180 l-38 162 -43 0 c-29 0 -41 -4 -38 -12z"/>
<path d="M3440 3828 c0 -2 -11 -54 -24 -115 -23 -110 -23 -114 -7 -179 l17
-67 47 175 c26 96 47 178 47 181 0 6 -80 10 -80 5z"/>
<path d="M3542 3653 l3 -178 43 -3 42 -3 0 180 0 181 -45 0 -45 0 2 -177z"/>
<path d="M3640 3800 c0 -30 1 -30 55 -30 54 0 55 0 55 30 0 30 -1 30 -55 30
-54 0 -55 0 -55 -30z"/>
<path d="M2938 3615 l3 -145 40 0 39 0 0 145 0 145 -42 0 -43 0 3 -145z"/>
<path d="M2430 3660 c0 -29 1 -30 50 -30 49 0 50 1 50 30 0 29 -1 30 -50 30
-49 0 -50 -1 -50 -30z"/>
<path d="M3640 3660 c0 -29 1 -30 50 -30 49 0 50 1 50 30 0 29 -1 30 -50 30
-49 0 -50 -1 -50 -30z"/>
<path d="M1470 3574 c0 -27 -5 -37 -20 -41 -14 -4 -20 -14 -20 -34 0 -26 3
-29 33 -29 44 0 74 23 87 68 18 66 15 72 -35 72 -45 0 -45 0 -45 -36z"/>
<path d="M2740 3575 c0 -24 -6 -37 -20 -45 -12 -6 -20 -21 -20 -35 0 -22 5
-25 33 -25 44 0 74 23 87 68 18 66 15 72 -35 72 -45 0 -45 0 -45 -35z"/>
<path d="M2430 3505 l0 -35 55 0 55 0 0 35 0 35 -55 0 -55 0 0 -35z"/>
<path d="M3640 3505 l0 -35 55 0 55 0 0 35 0 35 -55 0 -55 0 0 -35z"/>
<path d="M1990 3500 c0 -29 2 -30 45 -30 43 0 45 1 45 30 0 29 -2 30 -45 30
-43 0 -45 -1 -45 -30z"/>
<path d="M2210 3500 c0 -29 1 -30 50 -30 49 0 50 1 50 30 0 29 -1 30 -50 30
-49 0 -50 -1 -50 -30z"/>
<path d="M2341 3275 c-201 -37 -316 -126 -356 -276 -22 -81 -21 -956 0 -1048
31 -128 95 -209 209 -262 58 -27 204 -59 268 -59 l29 0 -3 132 -3 132 -32 7
c-42 8 -78 32 -100 66 -15 23 -19 55 -21 193 l-4 166 29 31 c39 41 97 56 206
51 86 -3 90 -4 118 -36 l29 -32 0 -160 c0 -220 -15 -253 -124 -281 l-46 -11 0
-130 0 -130 73 7 c219 22 369 113 429 263 22 54 23 69 23 302 l0 245 -27 51
c-52 99 -144 149 -302 163 -121 11 -225 -2 -306 -40 -36 -17 -73 -37 -82 -46
-17 -15 -18 -8 -18 158 0 146 3 180 18 208 23 45 57 69 112 79 l45 8 3 132 3
132 -48 -1 c-26 0 -81 -7 -122 -14z"/>
<path d="M2560 3156 c0 -129 1 -136 20 -136 33 0 86 -31 104 -60 11 -20 16
-51 16 -104 l0 -76 181 0 181 0 -4 113 c-3 97 -8 120 -32 174 -61 133 -184
202 -390 220 l-76 6 0 -137z"/>
<path d="M1770 1461 c-14 -4 -31 -18 -39 -32 -23 -42 -7 -74 64 -126 63 -47
80 -75 50 -87 -8 -3 -15 -17 -15 -31 0 -25 2 -26 33 -20 45 10 67 33 67 70 0
37 -28 69 -96 112 -44 28 -57 59 -29 69 18 7 20 54 3 53 -7 -1 -24 -4 -38 -8z"/>
<path d="M1830 1448 c1 -36 34 -68 69 -68 21 0 31 5 31 16 0 28 -19 52 -51 63
-44 15 -49 14 -49 -11z"/>
<path d="M2260 1463 c-45 -17 -50 -32 -50 -148 0 -122 6 -136 63 -150 24 -6
27 -4 27 18 0 14 -4 29 -10 32 -6 3 -10 48 -10 100 0 52 4 97 10 100 14 9 12
55 -2 54 -7 0 -20 -3 -28 -6z"/>
<path d="M2317 1446 c3 -15 9 -29 14 -32 5 -3 9 -16 9 -30 0 -22 4 -24 41 -24
41 0 41 0 35 32 -8 41 -32 66 -72 74 -30 6 -31 5 -27 -20z"/>
<path d="M2893 1460 c-44 -18 -55 -51 -51 -154 3 -105 15 -128 71 -141 23 -6
27 -4 27 15 0 12 -7 28 -15 36 -11 11 -15 38 -15 98 0 62 4 87 15 96 18 15 20
60 3 59 -7 0 -23 -4 -35 -9z"/>
<path d="M2950 1445 c0 -14 7 -28 15 -31 12 -5 15 -26 15 -100 0 -75 -3 -96
-15 -100 -8 -4 -15 -17 -15 -31 0 -22 3 -24 33 -18 56 12 67 34 67 147 0 55
-4 108 -10 118 -8 16 -58 40 -81 40 -5 0 -9 -11 -9 -25z"/>
<path d="M1990 1315 l0 -145 35 0 35 0 0 145 0 145 -35 0 -35 0 0 -145z"/>
<path d="M2070 1435 c0 -23 4 -25 45 -25 41 0 45 2 45 25 0 23 -4 25 -45 25
-41 0 -45 -2 -45 -25z"/>
<path d="M2460 1435 l0 -25 105 0 105 0 0 25 0 25 -105 0 -105 0 0 -25z"/>
<path d="M2710 1315 l0 -145 35 0 35 0 0 145 0 145 -35 0 -35 0 0 -145z"/>
<path d="M3110 1315 l0 -145 35 0 35 0 1 83 0 82 42 -82 c39 -79 43 -83 74
-83 l33 0 0 145 0 145 -35 0 -35 0 -1 -87 -1 -88 -41 88 c-40 83 -43 87 -74
87 l-33 0 0 -145z"/>
<path d="M2530 1285 l0 -115 35 0 35 0 0 115 0 115 -35 0 -35 0 0 -115z"/>
<path d="M2070 1325 c0 -22 4 -25 40 -25 36 0 40 3 40 25 0 23 -4 25 -40 25
-36 0 -40 -2 -40 -25z"/>
<path d="M2340 1251 c0 -17 -4 -33 -10 -36 -5 -3 -10 -18 -10 -32 0 -22 3 -24
28 -18 39 9 62 35 69 78 l6 37 -42 0 c-39 0 -41 -2 -41 -29z"/>
<path d="M1710 1251 c0 -42 54 -91 100 -91 19 0 11 49 -10 60 -11 6 -20 17
-20 25 0 10 -11 15 -35 15 -19 0 -35 -4 -35 -9z"/>
<path d="M2070 1195 c0 -23 4 -25 45 -25 41 0 45 2 45 25 0 23 -4 25 -45 25
-41 0 -45 -2 -45 -25z"/>
</g>
</svg>
